<?xml version="1.0" encoding="utf-8"?>
<!-- Generator: Adobe Illustrator 27.7.0, SVG Export Plug-In . SVG Version: 6.00 Build 0)  -->
<svg xmlns:xlink="http://www.w3.org/1999/xlink" version="1.1" id="Camada_1" xmlns="http://www.w3.org/2000/svg" x="0px"
     y="0px"
     viewBox="0 0 215.13 257.95" style="enable-background:new 0 0 215.13 257.95;" xml:space="preserve">
<style type="text/css">
	.st0{fill:#010202;}
</style>
    <g>
	<g>
		<path class="st0" d="M149.66,119.51l-7.21-4.59l-4.98-3.17l-17.77-11.32c5.35-3.47,8.7-9.45,8.7-16.09
			c0-5.27-2.21-10.36-6.05-13.98c-3.9-3.66-9.01-5.5-14.37-5.17c-9.38,0.58-17.07,8.07-17.89,17.43
			c-0.64,7.28,2.78,14.03,8.62,17.81L82.6,110.71l-1.64,1.04l-4.98,3.17l-2.03,1.29l-5.18,3.3c-0.77,0.49-1.24,1.34-1.24,2.26v13.46
			c0,4.91,4,8.91,8.9,8.91c2.5,0,4.91-1.06,6.59-2.91c1.68-1.85,2.52-4.34,2.28-6.83l-1.15-12.09l-0.33-3.47l-5.07,3.23l0.3,3.22
			l0.92,9.62c0.1,1.01-0.23,1.97-0.91,2.72c-0.68,0.75-1.61,1.17-2.63,1.17c-1.96,0-3.55-1.59-3.55-3.56v-11.99l3.98-2.54l1.66-1.05
			l5.07-3.23l3.29-2.09l18.79-11.97c0.87-0.56,1.35-1.58,1.21-2.6c-0.14-1.03-0.86-1.89-1.85-2.21c-6.23-1.96-10.17-7.91-9.6-14.45
			c0.59-6.74,6.13-12.14,12.89-12.56c3.87-0.24,7.55,1.08,10.36,3.73c2.82,2.65,4.36,6.23,4.36,10.08c0,6.08-3.88,11.38-9.66,13.2
			c-0.99,0.31-1.71,1.18-1.85,2.21c-0.14,1.03,0.34,2.05,1.21,2.6l13.25,8.44l8.84,5.62l5.07,3.23l2.19,1.39l3.45,2.2v11.99
			c0,1.96-1.59,3.56-3.56,3.56c-1.02,0-1.94-0.42-2.63-1.17c-0.68-0.75-1-1.72-0.91-2.72l0.86-9l0.36-3.82l-5.07-3.22l-0.39,4.06
			l-1.09,11.48c-0.24,2.49,0.59,4.98,2.28,6.83c1.68,1.85,4.08,2.91,6.59,2.91c4.91,0,8.9-4,8.9-8.91v-13.46
			C150.9,120.85,150.43,120,149.66,119.51z"/>
        <path class="st0" d="M78.15,93.14c0,5.58-3.32,10.61-8.45,12.81c-0.91,0.39-1.53,1.25-1.61,2.24c-0.08,0.99,0.39,1.94,1.22,2.47
			l4.74,3.03l4.95-3.19l-3.13-2c4.74-3.59,7.63-9.23,7.63-15.36c0-5.3-2.22-10.42-6.08-14.05c-3.91-3.68-9.04-5.52-14.42-5.19
			c-9.88,0.61-17.81,8.86-18.05,18.77c-0.15,6.33,2.73,12.15,7.62,15.83l-6.31,4.03c-0.64,0.41-1.08,1.08-1.2,1.83l-5.74,35.61
			c-0.23,1.46,0.76,2.83,2.22,3.07c1.46,0.23,2.83-0.76,3.07-2.22l0.46-2.84l5.09-31.58l8.99-5.73c0.83-0.53,1.31-1.48,1.22-2.47
			c-0.08-0.99-0.7-1.85-1.61-2.24c-5.27-2.25-8.59-7.42-8.45-13.15c0.17-7.16,5.9-13.11,13.03-13.56c3.89-0.24,7.6,1.09,10.43,3.75
			C76.59,85.65,78.15,89.26,78.15,93.14z"/>
        <path class="st0" d="M115.24,127.25l-1.09-5.65c1.59-1.4,2.54-3.44,2.54-5.61c0-4.13-3.35-7.49-7.48-7.49
			c-4.13,0-7.48,3.36-7.48,7.49c0,2.18,0.95,4.22,2.54,5.61l-1.01,5.24l-3.48,18.12c-0.17,0.87,0.11,1.77,0.74,2.4l6.8,6.8
			c0.52,0.52,1.21,0.78,1.89,0.78c0.68,0,1.37-0.26,1.89-0.78l6.8-6.8c0.63-0.62,0.9-1.52,0.74-2.4L115.24,127.25z M109.22,113.57
			c1.34,0,2.43,1.08,2.43,2.43c0,1.34-1.09,2.43-2.43,2.43c-1.34,0-2.43-1.09-2.43-2.43C106.79,114.65,107.87,113.57,109.22,113.57z
			 M109.22,148.48l-3.9-3.9l3.2-16.65l0.7-3.66l0.71,3.72l3.19,16.59L109.22,148.48z"/>
        <path class="st0" d="M179.12,149.97l-5.74-35.61c-0.05-0.32-0.15-0.62-0.32-0.89v-0.01c-0.21-0.37-0.52-0.7-0.89-0.93l-6.31-4.03
			c4.74-3.59,7.63-9.23,7.63-15.36c0-5.3-2.22-10.42-6.08-14.05c-3.92-3.68-9.04-5.52-14.42-5.19c-9.89,0.61-17.82,8.86-18.06,18.77
			c-0.15,6.33,2.74,12.15,7.62,15.83l-3.15,2.02l4.96,3.18l4.76-3.04c0.83-0.53,1.31-1.48,1.22-2.47c-0.08-0.99-0.7-1.85-1.61-2.24
			c-5.27-2.25-8.59-7.42-8.45-13.15c0.17-7.16,5.9-13.11,13.03-13.56c3.89-0.24,7.6,1.09,10.43,3.75c2.83,2.66,4.39,6.27,4.39,10.15
			c0,5.58-3.32,10.61-8.45,12.81c-0.91,0.39-1.53,1.25-1.61,2.24c-0.08,0.99,0.39,1.94,1.22,2.47l8.98,5.73l4.77,29.6l0.78,4.83
			c0.21,1.31,1.35,2.25,2.64,2.25c0.14,0,0.29-0.01,0.43-0.03C178.37,152.8,179.36,151.43,179.12,149.97z"/>
	</g>
        <g>
		<g>
			<g>
				<path class="st0" d="M74.35,200.63c0,3.74,5.33,6.79,11.84,6.79h46.06c6.51,0,11.84-3.06,11.84-6.79s-5.33-6.79-11.84-6.79
					H86.18C79.67,193.83,74.35,196.89,74.35,200.63z"/>
                <path class="st0" d="M76.73,217.18c0,3.74,5.33,6.8,11.84,6.8h40.63c6.51,0,11.84-3.06,11.84-6.8s-5.33-6.8-11.84-6.8H88.57
					C82.06,210.38,76.73,213.44,76.73,217.18z"/>
                <path class="st0" d="M80.38,233.46c0,3.74,3.25,6.8,7.21,6.8c3.97,0,7.21,2,7.21,4.43s5.33,4.43,11.84,4.43h4.94
					c6.51,0,11.84-2,11.84-4.43s3.19-4.43,7.1-4.43c3.9,0,7.1-3.06,7.1-6.8c0-3.74-5.33-6.8-11.84-6.8H92.22
					C85.71,226.66,80.38,229.72,80.38,233.46z"/>
                <path class="st0" d="M191.73,65.77c-4.53-10.7-11.01-20.31-19.26-28.57c-8.25-8.25-17.86-14.73-28.56-19.26
					c-11.07-4.68-22.83-7.06-34.95-7.07h-0.35c-12.12,0-23.88,2.38-34.96,7.07c-10.7,4.53-20.31,11.01-28.56,19.26
					c-8.25,8.25-14.73,17.86-19.26,28.57c-4.69,11.08-7.06,22.85-7.06,34.98c0,24.15,17.29,50.58,18.02,51.69
					c3.33,5.04,26.8,37.4,42.4,37.17h59.18c17.22-1.18,39.08-32.13,42.41-37.16c0.74-1.11,18.02-27.54,18.02-51.69
					C198.79,88.62,196.42,76.85,191.73,65.77z M170.89,145.92c-3.76,5.68-22.77,31.85-32.53,31.85h-23.78h-11.84H79.18
					c-9.56-0.71-28.77-26.17-32.52-31.85c-0.16-0.24-16.06-24.61-16.06-45.17c0-43,34.96-77.99,77.94-78.03c0.15,0,0.31,0,0.47,0
					c42.99,0.05,77.94,35.03,77.94,78.03C186.96,121.31,171.05,145.68,170.89,145.92z"/>
			</g>
		</g>
	</g>
</g>
</svg>
