<?xml version="1.0" encoding="utf-8"?>
<!-- Generator: Adobe Illustrator 27.7.0, SVG Export Plug-In . SVG Version: 6.00 Build 0)  -->
<svg version="1.1" id="Camada_1" xmlns="http://www.w3.org/2000/svg" xmlns:xlink="http://www.w3.org/1999/xlink" x="0px" y="0px"
	 viewBox="0 0 425.2 94.36" style="enable-background:new 0 0 425.2 94.36;" xml:space="preserve">
<style type="text/css">
	.st0{fill:#010202;}
</style>
<g>
	<path d="M72.84,33.8h23.28v5.76H79.01v9.35h13.41v5.76H79.01v9.35h17.11v5.76H72.84V44.54l6.17-4.99h-6.17V33.8z"/>
	<path d="M102.9,33.8h2.11l21.07,22.67V33.8h6.17v35.98h-2.06l-21.12-22.77v22.77h-6.17V45.83h5.09l-5.09-5.45V33.8z"/>
	<path d="M140.06,33.8h23.28v5.76h-17.11v9.35h13.41v5.76h-13.41v9.35h17.11v5.76h-23.28V44.54l6.17-4.99h-6.17V33.8z"/>
	<path d="M181.49,33.8c2.36,0,4.39,0.41,6.07,1.23c1.68,0.82,3.01,1.89,3.98,3.21c0.98,1.32,1.62,2.78,1.93,4.37
		c0.31,1.59,0.27,3.15-0.13,4.68c-0.39,1.53-1.13,2.94-2.21,4.24c-1.08,1.3-2.51,2.3-4.29,2.98l10.43,15.26h-7.35l-9.71-14.34h-3.91
		v14.34h-6.17V44.5l6.07-4.94h-6.07V33.8H181.49z M176.3,39.56v10.12h5.19c1.3,0,2.39-0.25,3.26-0.75c0.87-0.5,1.52-1.13,1.95-1.87
		c0.43-0.74,0.64-1.56,0.64-2.44c0-0.88-0.22-1.7-0.67-2.44c-0.45-0.74-1.1-1.37-1.95-1.87c-0.86-0.5-1.94-0.75-3.24-0.75H176.3z"/>
	<path d="M229.13,66.23c-1.5,1.2-3.32,2.22-5.46,3.06c-2.15,0.84-4.4,1.26-6.77,1.26c-3.08,0-5.79-0.54-8.12-1.62
		c-2.33-1.08-4.27-2.49-5.81-4.24c-1.54-1.75-2.7-3.74-3.47-5.99c-0.77-2.24-1.16-4.55-1.16-6.91c0-1.23,0.1-2.46,0.31-3.67
		c0.21-1.22,0.53-2.41,0.98-3.57h7.19c-0.79,1.23-1.35,2.58-1.67,4.03c-0.33,1.46-0.43,2.92-0.31,4.39c0.12,1.47,0.46,2.9,1.03,4.29
		s1.35,2.61,2.36,3.68c1.01,1.06,2.24,1.91,3.7,2.54c1.46,0.63,3.13,0.95,5.01,0.95c1.44,0,2.64-0.16,3.6-0.49
		c0.96-0.33,1.76-0.69,2.41-1.11V55.9h-8.43v-5.76h14.6V66.23z M202.61,39.3c1.54-1.88,3.5-3.4,5.88-4.55
		c2.38-1.15,5.18-1.72,8.4-1.72c1.92,0,3.8,0.32,5.65,0.95c1.85,0.63,3.55,1.53,5.09,2.7l-3.6,5.04c-0.75-0.69-1.74-1.28-2.96-1.8
		c-1.22-0.51-2.6-0.77-4.14-0.77c-2.3,0-4.27,0.45-5.91,1.36c-1.65,0.91-2.96,2.1-3.96,3.57L202.61,39.3z"/>
	<path d="M241.06,33.8l8.33,15.32l8.33-15.32h6.63l-11.87,21.69v14.29h-6.17V54.57h0.1l2.62-4.78l-5.96-0.21l-8.63-15.78H241.06z"/>
	<path d="M275.54,44.54c0.48,0.75,1.29,1.42,2.44,2c1.15,0.58,2.45,1.16,3.91,1.75c1.46,0.58,2.96,1.21,4.5,1.88
		c1.54,0.67,2.96,1.49,4.24,2.47c1.29,0.98,2.35,2.13,3.19,3.47c0.84,1.34,1.26,2.96,1.26,4.88c0,1.75-0.39,3.26-1.18,4.55
		c-0.79,1.28-1.8,2.36-3.03,3.21c-1.23,0.86-2.63,1.49-4.19,1.9c-1.56,0.41-3.11,0.62-4.65,0.62c-1.34,0-2.66-0.12-3.98-0.36
		c-1.32-0.24-2.59-0.62-3.8-1.13c-1.22-0.51-2.36-1.16-3.42-1.95c-1.06-0.79-2-1.73-2.83-2.83l4.78-3.75
		c1.13,1.51,2.54,2.54,4.24,3.11c1.7,0.57,3.43,0.85,5.22,0.85c0.69,0,1.42-0.07,2.21-0.21c0.79-0.14,1.52-0.38,2.21-0.72
		c0.68-0.34,1.25-0.8,1.7-1.36c0.45-0.57,0.67-1.28,0.67-2.13c0-1.1-0.45-2.03-1.34-2.8c-0.89-0.77-2.02-1.47-3.39-2.11
		c-1.37-0.63-2.87-1.27-4.5-1.9c-1.63-0.63-3.18-1.37-4.65-2.21c-1.47-0.84-2.76-1.83-3.85-2.98c-1.1-1.15-1.8-2.56-2.11-4.24
		H275.54z M269.53,39.45c0.41-1.2,1-2.24,1.77-3.14c0.77-0.89,1.69-1.64,2.75-2.24c1.06-0.6,2.21-1.04,3.44-1.34
		s2.52-0.44,3.86-0.44c2.36,0,4.65,0.47,6.86,1.41c2.21,0.94,4.14,2.24,5.78,3.88l-4.06,4.52c-1.2-1.2-2.54-2.12-4.03-2.78
		c-1.49-0.65-3.08-0.98-4.75-0.98c-0.79,0-1.54,0.08-2.26,0.23c-0.72,0.15-1.36,0.41-1.93,0.77c-0.57,0.36-1.02,0.84-1.36,1.44
		c-0.34,0.6-0.51,1.35-0.51,2.24c0,0.38,0.07,0.7,0.21,0.98L269.53,39.45z"/>
	<path d="M309.21,44.54h4.93l-4.93-10.74h6.48l16.45,35.98h-6.37l-2.31-5.04h-17.06l-2.31,5.04h-6.42L309.21,44.54z M320.77,58.99
		l-5.86-12.75l-5.86,12.75H320.77z"/>
	<path d="M337.89,64.02V33.8h6.17v24.72L337.89,64.02z M337.89,69.78v-5.76h23.28v5.76H337.89z"/>
	<path d="M366.93,33.8h23.28v5.76h-17.11v9.35h13.41v5.76h-13.41v9.35h17.11v5.76h-23.28V44.54l6.17-4.99h-6.17V33.8z"/>
	<path d="M403.52,44.54c0.48,0.75,1.29,1.42,2.44,2c1.15,0.58,2.45,1.16,3.91,1.75c1.46,0.58,2.96,1.21,4.5,1.88
		c1.54,0.67,2.96,1.49,4.24,2.47c1.29,0.98,2.35,2.13,3.19,3.47c0.84,1.34,1.26,2.96,1.26,4.88c0,1.75-0.39,3.26-1.18,4.55
		s-1.8,2.36-3.03,3.21c-1.23,0.86-2.63,1.49-4.19,1.9c-1.56,0.41-3.11,0.62-4.65,0.62c-1.34,0-2.66-0.12-3.98-0.36
		c-1.32-0.24-2.59-0.62-3.8-1.13c-1.22-0.51-2.36-1.16-3.42-1.95c-1.06-0.79-2-1.73-2.83-2.83l4.78-3.75
		c1.13,1.51,2.54,2.54,4.24,3.11c1.7,0.57,3.43,0.85,5.22,0.85c0.69,0,1.42-0.07,2.21-0.21c0.79-0.14,1.52-0.38,2.21-0.72
		c0.68-0.34,1.25-0.8,1.7-1.36c0.45-0.57,0.67-1.28,0.67-2.13c0-1.1-0.45-2.03-1.34-2.8c-0.89-0.77-2.02-1.47-3.39-2.11
		c-1.37-0.63-2.87-1.27-4.5-1.9c-1.63-0.63-3.18-1.37-4.65-2.21c-1.47-0.84-2.76-1.83-3.85-2.98c-1.1-1.15-1.8-2.56-2.11-4.24
		H403.52z M397.51,39.45c0.41-1.2,1-2.24,1.77-3.14c0.77-0.89,1.69-1.64,2.75-2.24c1.06-0.6,2.21-1.04,3.44-1.34
		s2.52-0.44,3.86-0.44c2.36,0,4.65,0.47,6.86,1.41c2.21,0.94,4.14,2.24,5.78,3.88l-4.06,4.52c-1.2-1.2-2.54-2.12-4.03-2.78
		c-1.49-0.65-3.08-0.98-4.75-0.98c-0.79,0-1.54,0.08-2.26,0.23c-0.72,0.15-1.36,0.41-1.93,0.77c-0.57,0.36-1.02,0.84-1.36,1.44
		c-0.34,0.6-0.51,1.35-0.51,2.24c0,0.38,0.07,0.7,0.21,0.98L397.51,39.45z"/>
</g>
<g>
	<g>
		<path class="st0" d="M40.56,49.35l-1.98-1.26l-1.37-0.87l-4.88-3.11c1.47-0.95,2.39-2.6,2.39-4.42c0-1.45-0.61-2.85-1.66-3.84
			c-1.07-1.01-2.48-1.51-3.95-1.42c-2.58,0.16-4.69,2.22-4.92,4.79c-0.17,2,0.76,3.85,2.37,4.9l-4.43,2.82l-0.45,0.29l-1.37,0.87
			l-0.56,0.35l-1.42,0.91c-0.21,0.14-0.34,0.37-0.34,0.62v3.7c0,1.35,1.1,2.45,2.45,2.45c0.69,0,1.35-0.29,1.81-0.8
			c0.46-0.51,0.69-1.19,0.63-1.88l-0.32-3.32l-0.09-0.95l-1.39,0.89l0.08,0.88l0.25,2.64c0.03,0.28-0.06,0.54-0.25,0.75
			c-0.19,0.21-0.44,0.32-0.72,0.32c-0.54,0-0.98-0.44-0.98-0.98v-3.29l1.09-0.7l0.46-0.29l1.39-0.89l0.9-0.58l5.16-3.29
			c0.24-0.15,0.37-0.43,0.33-0.72c-0.04-0.28-0.24-0.52-0.51-0.61c-1.71-0.54-2.8-2.17-2.64-3.97c0.16-1.85,1.68-3.33,3.54-3.45
			c1.06-0.07,2.08,0.3,2.85,1.02c0.77,0.73,1.2,1.71,1.2,2.77c0,1.67-1.07,3.13-2.66,3.63c-0.27,0.09-0.47,0.32-0.51,0.61
			c-0.04,0.28,0.09,0.56,0.33,0.72l3.64,2.32l2.43,1.55l1.39,0.89l0.6,0.38l0.95,0.6v3.29c0,0.54-0.44,0.98-0.98,0.98
			c-0.28,0-0.53-0.11-0.72-0.32c-0.19-0.21-0.28-0.47-0.25-0.75l0.24-2.47l0.1-1.05l-1.39-0.89l-0.11,1.12l-0.3,3.15
			c-0.07,0.68,0.16,1.37,0.63,1.88c0.46,0.51,1.12,0.8,1.81,0.8c1.35,0,2.45-1.1,2.45-2.45v-3.7C40.9,49.72,40.77,49.49,40.56,49.35
			z"/>
		<path class="st0" d="M20.91,42.11c0,1.53-0.91,2.92-2.32,3.52c-0.25,0.11-0.42,0.34-0.44,0.62c-0.02,0.27,0.11,0.53,0.34,0.68
			l1.3,0.83l1.36-0.88l-0.86-0.55c1.3-0.99,2.1-2.54,2.1-4.22c0-1.46-0.61-2.86-1.67-3.86c-1.08-1.01-2.48-1.52-3.96-1.43
			c-2.72,0.17-4.9,2.43-4.96,5.16c-0.04,1.74,0.75,3.34,2.09,4.35l-1.73,1.11c-0.18,0.11-0.3,0.3-0.33,0.5l-1.58,9.79
			c-0.06,0.4,0.21,0.78,0.61,0.84c0.4,0.06,0.78-0.21,0.84-0.61l0.13-0.78l1.4-8.68l2.47-1.58c0.23-0.15,0.36-0.41,0.34-0.68
			c-0.02-0.27-0.19-0.51-0.44-0.62c-1.45-0.62-2.36-2.04-2.32-3.61c0.05-1.97,1.62-3.6,3.58-3.73c1.07-0.07,2.09,0.3,2.87,1.03
			C20.48,40.05,20.91,41.04,20.91,42.11z"/>
		<path class="st0" d="M31.1,51.48l-0.3-1.55c0.44-0.38,0.7-0.94,0.7-1.54c0-1.13-0.92-2.06-2.06-2.06c-1.13,0-2.06,0.92-2.06,2.06
			c0,0.6,0.26,1.16,0.7,1.54l-0.28,1.44l-0.96,4.98c-0.05,0.24,0.03,0.49,0.2,0.66l1.87,1.87c0.14,0.14,0.33,0.22,0.52,0.22
			c0.19,0,0.38-0.07,0.52-0.22l1.87-1.87c0.17-0.17,0.25-0.42,0.2-0.66L31.1,51.48z M29.45,47.72c0.37,0,0.67,0.3,0.67,0.67
			c0,0.37-0.3,0.67-0.67,0.67c-0.37,0-0.67-0.3-0.67-0.67C28.78,48.02,29.08,47.72,29.45,47.72z M29.45,57.32l-1.07-1.07l0.88-4.58
			l0.19-1.01l0.2,1.02l0.88,4.56L29.45,57.32z"/>
		<path class="st0" d="M48.66,57.72l-1.58-9.79c-0.01-0.09-0.04-0.17-0.09-0.25v0c-0.06-0.1-0.14-0.19-0.24-0.26l-1.73-1.11
			c1.3-0.99,2.1-2.54,2.1-4.22c0-1.46-0.61-2.86-1.67-3.86c-1.08-1.01-2.49-1.52-3.96-1.43c-2.72,0.17-4.9,2.43-4.96,5.16
			c-0.04,1.74,0.75,3.34,2.09,4.35l-0.87,0.55l1.36,0.87l1.31-0.83c0.23-0.15,0.36-0.41,0.34-0.68c-0.02-0.27-0.19-0.51-0.44-0.62
			c-1.45-0.62-2.36-2.04-2.32-3.61c0.05-1.97,1.62-3.6,3.58-3.73c1.07-0.07,2.09,0.3,2.87,1.03c0.78,0.73,1.21,1.72,1.21,2.79
			c0,1.53-0.91,2.92-2.32,3.52c-0.25,0.11-0.42,0.34-0.44,0.62c-0.02,0.27,0.11,0.53,0.34,0.68l2.47,1.58l1.31,8.13l0.21,1.33
			c0.06,0.36,0.37,0.62,0.73,0.62c0.04,0,0.08,0,0.12-0.01C48.45,58.5,48.72,58.12,48.66,57.72z"/>
	</g>
	<g>
		<g>
			<g>
				<path class="st0" d="M19.86,71.65c0,1.03,1.46,1.87,3.25,1.87h12.66c1.79,0,3.25-0.84,3.25-1.87c0-1.03-1.46-1.87-3.25-1.87
					H23.12C21.33,69.78,19.86,70.62,19.86,71.65z"/>
				<path class="st0" d="M20.52,76.19c0,1.03,1.46,1.87,3.25,1.87h11.17c1.79,0,3.25-0.84,3.25-1.87c0-1.03-1.46-1.87-3.25-1.87
					H23.77C21.98,74.32,20.52,75.17,20.52,76.19z"/>
				<path class="st0" d="M21.52,80.67c0,1.03,0.89,1.87,1.98,1.87c1.09,0,1.98,0.55,1.98,1.22c0,0.67,1.46,1.22,3.25,1.22h1.36
					c1.79,0,3.25-0.55,3.25-1.22c0-0.67,0.88-1.22,1.95-1.22c1.07,0,1.95-0.84,1.95-1.87S35.79,78.8,34,78.8h-9.22
					C22.99,78.8,21.52,79.64,21.52,80.67z"/>
				<path class="st0" d="M52.12,34.58c-1.24-2.94-3.02-5.58-5.29-7.85c-2.27-2.27-4.91-4.05-7.85-5.29
					c-3.04-1.29-6.28-1.94-9.61-1.94h-0.1c-3.33,0-6.56,0.65-9.61,1.94c-2.94,1.24-5.58,3.02-7.85,5.29
					C9.56,29,7.78,31.64,6.53,34.58c-1.29,3.05-1.94,6.28-1.94,9.61c0,6.64,4.75,13.9,4.95,14.21c0.92,1.38,7.37,10.28,11.65,10.21
					h16.26c4.73-0.33,10.74-8.83,11.65-10.21c0.2-0.31,4.95-7.57,4.95-14.21C54.06,40.87,53.41,37.63,52.12,34.58z M46.4,56.61
					c-1.03,1.56-6.26,8.75-8.94,8.75h-6.54h-3.25h-6.47c-2.63-0.2-7.91-7.19-8.94-8.75c-0.04-0.07-4.41-6.76-4.41-12.41
					c0-11.82,9.61-21.43,21.42-21.44c0.04,0,0.09,0,0.13,0c11.81,0.01,21.42,9.63,21.42,21.44C50.81,49.85,46.44,56.54,46.4,56.61z"
					/>
			</g>
		</g>
	</g>
</g>
</svg>
