<?xml version="1.0" encoding="utf-8"?>
<!-- Generator: Adobe Illustrator 27.7.0, SVG Export Plug-In . SVG Version: 6.00 Build 0)  -->
<svg version="1.1" id="Camada_1" xmlns="http://www.w3.org/2000/svg" xmlns:xlink="http://www.w3.org/1999/xlink" x="0px" y="0px"
	 viewBox="0 0 425.2 94.36" style="enable-background:new 0 0 425.2 94.36;" xml:space="preserve">
<g>
	<path d="M3.56,25.1h27.89v6.9h-20.5v11.2h16.07v6.89H10.95v11.2h20.5v6.9H3.56V37.96l7.39-5.97H3.56V25.1z"/>
	<path d="M39.58,25.1h2.52l25.24,27.15V25.1h7.39v43.09h-2.46l-25.3-27.27v27.27h-7.39V39.5h6.1l-6.1-6.53V25.1z"/>
	<path d="M84.09,25.1h27.89v6.9h-20.5v11.2h16.07v6.89H91.48v11.2h20.5v6.9H84.09V37.96l7.39-5.97h-7.39V25.1z"/>
	<path d="M133.71,25.1c2.83,0,5.25,0.49,7.26,1.48c2.01,0.99,3.6,2.27,4.77,3.85c1.17,1.58,1.94,3.32,2.31,5.23
		c0.37,1.91,0.32,3.78-0.15,5.6c-0.47,1.83-1.35,3.52-2.65,5.08c-1.29,1.56-3.01,2.75-5.14,3.57l12.5,18.28h-8.8l-11.64-17.18h-4.68
		v17.18h-7.39V37.91l7.26-5.92h-7.26v-6.9H133.71z M127.49,31.99v12.13h6.22c1.56,0,2.86-0.3,3.91-0.9c1.05-0.6,1.83-1.35,2.34-2.24
		c0.51-0.89,0.77-1.86,0.77-2.92c0-1.06-0.27-2.03-0.8-2.92c-0.53-0.89-1.31-1.64-2.34-2.24c-1.03-0.6-2.32-0.9-3.88-0.9H127.49z"/>
	<path d="M190.78,63.94c-1.79,1.44-3.97,2.66-6.55,3.66c-2.57,1.01-5.27,1.51-8.11,1.51c-3.69,0-6.94-0.65-9.73-1.94
		c-2.79-1.29-5.11-2.99-6.96-5.08c-1.85-2.09-3.23-4.48-4.16-7.17c-0.92-2.69-1.39-5.45-1.39-8.28c0-1.48,0.12-2.94,0.37-4.4
		c0.25-1.46,0.64-2.88,1.17-4.28h8.62c-0.94,1.48-1.61,3.09-2,4.83c-0.39,1.74-0.51,3.5-0.37,5.26c0.14,1.77,0.55,3.48,1.23,5.14
		c0.68,1.66,1.62,3.13,2.83,4.4c1.21,1.27,2.69,2.29,4.43,3.05c1.74,0.76,3.74,1.14,6,1.14c1.72,0,3.16-0.19,4.31-0.58
		c1.15-0.39,2.11-0.83,2.89-1.32v-8.31h-10.1v-6.9h17.48V63.94z M159.01,31.68c1.85-2.26,4.2-4.07,7.05-5.45
		c2.85-1.37,6.21-2.06,10.07-2.06c2.3,0,4.56,0.38,6.77,1.14c2.22,0.76,4.25,1.84,6.09,3.23l-4.31,6.03
		c-0.9-0.82-2.08-1.54-3.54-2.15c-1.46-0.62-3.11-0.92-4.96-0.92c-2.75,0-5.11,0.54-7.08,1.63c-1.97,1.09-3.55,2.51-4.74,4.28
		L159.01,31.68z"/>
	<path d="M205.06,25.1l9.97,18.35l9.97-18.35h7.94l-14.22,25.98v17.11h-7.39V49.97h0.12l3.14-5.72L207.46,44l-10.34-18.9H205.06z"/>
	<path d="M246.37,37.96c0.57,0.9,1.55,1.7,2.92,2.4c1.37,0.7,2.93,1.4,4.68,2.09c1.74,0.7,3.54,1.45,5.39,2.25
		c1.85,0.8,3.54,1.79,5.08,2.96c1.54,1.17,2.81,2.55,3.82,4.16c1,1.6,1.51,3.55,1.51,5.85c0,2.09-0.47,3.91-1.42,5.45
		s-2.15,2.82-3.63,3.85c-1.48,1.03-3.15,1.79-5.02,2.28c-1.87,0.49-3.73,0.74-5.57,0.74c-1.6,0-3.19-0.14-4.77-0.43
		c-1.58-0.29-3.1-0.74-4.56-1.35s-2.82-1.39-4.09-2.34c-1.27-0.94-2.4-2.07-3.39-3.39l5.73-4.49c1.35,1.81,3.05,3.05,5.08,3.72
		c2.03,0.68,4.11,1.02,6.25,1.02c0.82,0,1.7-0.08,2.65-0.25c0.94-0.16,1.83-0.45,2.65-0.86c0.82-0.41,1.5-0.95,2.03-1.63
		c0.53-0.68,0.8-1.53,0.8-2.56c0-1.31-0.53-2.43-1.6-3.35c-1.07-0.92-2.42-1.76-4.06-2.52c-1.64-0.76-3.44-1.52-5.39-2.28
		c-1.95-0.76-3.81-1.64-5.57-2.65c-1.77-1.01-3.3-2.2-4.62-3.57c-1.31-1.37-2.15-3.07-2.53-5.08H246.37z M239.16,31.87
		c0.49-1.44,1.2-2.69,2.12-3.76c0.92-1.07,2.02-1.96,3.29-2.68c1.27-0.72,2.65-1.25,4.12-1.6c1.48-0.35,3.02-0.52,4.62-0.52
		c2.83,0,5.57,0.56,8.22,1.69c2.65,1.13,4.96,2.68,6.93,4.65l-4.86,5.42c-1.44-1.44-3.05-2.55-4.83-3.32s-3.68-1.17-5.69-1.17
		c-0.95,0-1.85,0.09-2.71,0.28c-0.86,0.19-1.63,0.49-2.31,0.92c-0.68,0.43-1.22,1.01-1.63,1.72c-0.41,0.72-0.62,1.61-0.62,2.68
		c0,0.45,0.08,0.84,0.25,1.17L239.16,31.87z"/>
	<path d="M286.69,37.96h5.91l-5.91-12.87h7.76l19.7,43.09h-7.63l-2.77-6.03h-20.44l-2.77,6.03h-7.69L286.69,37.96z M300.54,55.26
		l-7.02-15.27l-7.02,15.27H300.54z"/>
	<path d="M321.04,61.29V25.1h7.39v29.61L321.04,61.29z M321.04,68.19v-6.9h27.89v6.9H321.04z"/>
	<path d="M355.82,25.1h27.89v6.9h-20.5v11.2h16.07v6.89h-16.07v11.2h20.5v6.9h-27.89V37.96l7.39-5.97h-7.39V25.1z"/>
	<path d="M399.66,37.96c0.57,0.9,1.55,1.7,2.92,2.4c1.37,0.7,2.93,1.4,4.68,2.09c1.74,0.7,3.54,1.45,5.39,2.25
		c1.85,0.8,3.54,1.79,5.08,2.96c1.54,1.17,2.81,2.55,3.82,4.16c1,1.6,1.51,3.55,1.51,5.85c0,2.09-0.47,3.91-1.42,5.45
		s-2.15,2.82-3.63,3.85c-1.48,1.03-3.15,1.79-5.02,2.28c-1.87,0.49-3.73,0.74-5.57,0.74c-1.6,0-3.19-0.14-4.77-0.43
		c-1.58-0.29-3.1-0.74-4.56-1.35c-1.46-0.62-2.82-1.39-4.09-2.34c-1.27-0.94-2.4-2.07-3.39-3.39l5.73-4.49
		c1.35,1.81,3.05,3.05,5.08,3.72c2.03,0.68,4.11,1.02,6.25,1.02c0.82,0,1.7-0.08,2.65-0.25c0.94-0.16,1.83-0.45,2.65-0.86
		c0.82-0.41,1.5-0.95,2.03-1.63c0.53-0.68,0.8-1.53,0.8-2.56c0-1.31-0.53-2.43-1.6-3.35c-1.07-0.92-2.42-1.76-4.06-2.52
		c-1.64-0.76-3.44-1.52-5.39-2.28c-1.95-0.76-3.81-1.64-5.57-2.65c-1.77-1.01-3.3-2.2-4.62-3.57c-1.31-1.37-2.15-3.07-2.53-5.08
		H399.66z M392.46,31.87c0.49-1.44,1.2-2.69,2.12-3.76c0.92-1.07,2.02-1.96,3.29-2.68c1.27-0.72,2.65-1.25,4.12-1.6
		c1.48-0.35,3.02-0.52,4.62-0.52c2.83,0,5.57,0.56,8.22,1.69c2.65,1.13,4.96,2.68,6.93,4.65l-4.86,5.42
		c-1.44-1.44-3.05-2.55-4.83-3.32s-3.68-1.17-5.69-1.17c-0.95,0-1.85,0.09-2.71,0.28c-0.86,0.19-1.63,0.49-2.31,0.92
		c-0.68,0.43-1.22,1.01-1.63,1.72c-0.41,0.72-0.62,1.61-0.62,2.68c0,0.45,0.08,0.84,0.25,1.17L392.46,31.87z"/>
</g>
</svg>
