<?xml version="1.0" encoding="UTF-8"?>
<svg id="Camada_1" data-name="Camada 1" xmlns="http://www.w3.org/2000/svg" viewBox="0 0 369.67 237.26">
  <defs>
    <style>
      .cls-1 {
        fill: #191a36;
      }
    </style>
  </defs>
  <path class="cls-1" d="m291.72,143.62l-19.06-12.13-13.15-8.37-46.95-29.9c14.14-9.18,22.99-24.97,22.99-42.52,0-13.92-5.83-27.39-15.98-36.94C209.26,4.08,195.76-.78,181.61.1c-24.8,1.54-45.11,21.34-47.28,46.05-1.68,19.23,7.34,37.07,22.78,47.08l-42.61,27.14-4.32,2.75-13.15,8.37-5.36,3.41-13.7,8.72c-2.03,1.3-3.27,3.55-3.27,5.97v35.56c0,12.98,10.56,23.54,23.52,23.54,6.62,0,12.96-2.81,17.41-7.7,4.45-4.89,6.65-11.47,6.02-18.05l-3.03-31.94-.88-9.18-13.39,8.53.8,8.5,2.42,25.42c.25,2.67-.6,5.22-2.4,7.2-1.81,1.98-4.26,3.08-6.95,3.08-5.17,0-9.38-4.21-9.38-9.4v-31.68l10.53-6.71,4.38-2.78,13.39-8.53,8.69-5.53,49.65-31.63c2.31-1.48,3.57-4.16,3.21-6.88-.36-2.72-2.26-5-4.89-5.83-16.45-5.19-26.89-20.9-25.38-38.18,1.56-17.8,16.2-32.07,34.07-33.19,10.23-.63,19.96,2.86,27.39,9.85,7.45,6.99,11.53,16.45,11.53,26.63,0,16.06-10.26,30.07-25.53,34.88-2.62.83-4.53,3.11-4.89,5.83-.36,2.72.9,5.41,3.21,6.88l35.01,22.3,23.35,14.86,13.39,8.53,5.78,3.68,9.13,5.81v31.68c0,5.19-4.21,9.4-9.4,9.4-2.69,0-5.14-1.1-6.95-3.08-1.81-1.98-2.66-4.54-2.4-7.2l2.26-23.79.96-10.09-13.39-8.52-1.02,10.73-2.89,30.33c-.63,6.58,1.57,13.15,6.02,18.05,4.45,4.89,10.79,7.7,17.43,7.7,12.96,0,23.52-10.56,23.52-23.54v-35.56c0-2.42-1.24-4.67-3.27-5.97Z"/>
  <path class="cls-1" d="m102.74,73.94c0,14.75-8.77,28.03-22.34,33.85-2.4,1.04-4.05,3.32-4.26,5.92-.22,2.62,1.02,5.14,3.24,6.54l12.54,8,13.09-8.42-8.28-5.28c12.52-9.49,20.16-24.4,20.16-40.6,0-14-5.86-27.53-16.07-37.13-10.34-9.73-23.88-14.6-38.12-13.72-26.11,1.62-47.08,23.41-47.7,49.61-.41,16.72,7.23,32.12,20.13,41.84l-16.67,10.64c-1.7,1.08-2.86,2.84-3.17,4.84L.09,224.12c-.61,3.85,2.01,7.48,5.86,8.11,3.85.61,7.48-2.01,8.11-5.86l1.21-7.51,13.45-83.47,23.76-15.15c2.2-1.4,3.46-3.91,3.24-6.54-.22-2.61-1.85-4.89-4.26-5.92-13.94-5.96-22.69-19.61-22.33-34.76.46-18.92,15.59-34.65,34.44-35.83,10.29-.64,20.08,2.89,27.56,9.91,7.48,7.04,11.61,16.56,11.61,26.82Z"/>
  <path class="cls-1" d="m200.76,164.08l-2.88-14.93c4.21-3.69,6.72-9.08,6.72-14.83,0-10.9-8.86-19.78-19.77-19.78s-19.77,8.88-19.77,19.78c0,5.75,2.51,11.14,6.73,14.83l-2.66,13.84-9.21,47.89c-.44,2.31.28,4.68,1.95,6.33l17.96,17.96c1.38,1.38,3.19,2.07,5,2.07s3.61-.69,5-2.07l17.96-17.96c1.67-1.65,2.39-4.02,1.95-6.33l-8.99-46.81Zm-15.92-36.16c3.54,0,6.41,2.86,6.41,6.41s-2.88,6.41-6.41,6.41-6.41-2.88-6.41-6.41,2.86-6.41,6.41-6.41Zm0,92.27l-10.31-10.31,8.45-44.01,1.85-9.68,1.89,9.84,8.42,43.86-10.31,10.31Z"/>
  <path class="cls-1" d="m369.58,224.12l-15.18-94.11c-.13-.83-.41-1.63-.83-2.36v-.02c-.57-.99-1.37-1.84-2.34-2.47l-16.67-10.64c12.52-9.49,20.16-24.4,20.16-40.6,0-14-5.86-27.53-16.06-37.13-10.35-9.73-23.9-14.6-38.12-13.72-26.13,1.62-47.09,23.41-47.72,49.61-.41,16.72,7.24,32.12,20.13,41.84l-8.33,5.33,13.1,8.41,12.59-8.03c2.2-1.4,3.46-3.91,3.24-6.54-.2-2.61-1.85-4.89-4.26-5.92-13.94-5.96-22.69-19.61-22.33-34.76.46-18.92,15.59-34.65,34.44-35.83,10.29-.64,20.08,2.89,27.56,9.91,7.48,7.04,11.61,16.56,11.61,26.82,0,14.75-8.77,28.03-22.34,33.85-2.4,1.04-4.05,3.32-4.26,5.92-.22,2.62,1.04,5.14,3.24,6.54l23.74,15.15,12.62,78.22,2.06,12.76c.57,3.47,3.57,5.94,6.98,5.94.36,0,.75-.02,1.13-.08,3.85-.63,6.47-4.26,5.85-8.11Z"/>
</svg>