<?xml version="1.0" encoding="UTF-8"?>
<svg id="Camada_1" data-name="Camada 1" xmlns="http://www.w3.org/2000/svg" viewBox="0 0 388.29 50.94">
  <defs>
    <style>
      .cls-1, .cls-2 {
        fill: #191a36;
      }

      .cls-2 {
        font-family: MartelSans-Regular, 'Martel Sans';
        font-size: 37.48px;
        letter-spacing: .21em;
      }
    </style>
  </defs>
  <g>
    <path class="cls-1" d="m36.31,20.88l-2.37-1.51-1.64-1.04-5.84-3.72c1.76-1.14,2.86-3.11,2.86-5.29,0-1.73-.73-3.41-1.99-4.6-1.28-1.2-2.96-1.81-4.73-1.7-3.09.19-5.61,2.66-5.88,5.73-.21,2.39.91,4.61,2.84,5.86l-5.3,3.38-.54.34-1.64,1.04-.67.42-1.71,1.09c-.25.16-.41.44-.41.74v4.43c0,1.62,1.31,2.93,2.93,2.93.82,0,1.61-.35,2.17-.96.55-.61.83-1.43.75-2.25l-.38-3.98-.11-1.14-1.67,1.06.1,1.06.3,3.16c.03.33-.07.65-.3.9-.22.25-.53.38-.86.38-.64,0-1.17-.52-1.17-1.17v-3.94l1.31-.84.55-.35,1.67-1.06,1.08-.69,6.18-3.94c.29-.18.44-.52.4-.86-.04-.34-.28-.62-.61-.73-2.05-.65-3.35-2.6-3.16-4.75.19-2.22,2.02-3.99,4.24-4.13,1.27-.08,2.48.36,3.41,1.23.93.87,1.44,2.05,1.44,3.31,0,2-1.28,3.74-3.18,4.34-.33.1-.56.39-.61.73-.04.34.11.67.4.86l4.36,2.78,2.91,1.85,1.67,1.06.72.46,1.14.72v3.94c0,.65-.52,1.17-1.17,1.17-.33,0-.64-.14-.86-.38-.22-.25-.33-.57-.3-.9l.28-2.96.12-1.26-1.67-1.06-.13,1.34-.36,3.77c-.08.82.2,1.64.75,2.25.55.61,1.34.96,2.17.96,1.61,0,2.93-1.31,2.93-2.93v-4.43c0-.3-.15-.58-.41-.74Z"/>
    <path class="cls-1" d="m12.79,12.2c0,1.84-1.09,3.49-2.78,4.21-.3.13-.5.41-.53.74-.03.33.13.64.4.81l1.56,1,1.63-1.05-1.03-.66c1.56-1.18,2.51-3.04,2.51-5.05,0-1.74-.73-3.43-2-4.62-1.29-1.21-2.97-1.82-4.74-1.71-3.25.2-5.86,2.91-5.94,6.17-.05,2.08.9,4,2.51,5.21l-2.08,1.32c-.21.13-.36.35-.4.6L.01,30.9c-.08.48.25.93.73,1.01.48.08.93-.25,1.01-.73l.15-.93,1.67-10.39,2.96-1.89c.27-.17.43-.49.4-.81-.03-.32-.23-.61-.53-.74-1.73-.74-2.82-2.44-2.78-4.33.06-2.35,1.94-4.31,4.29-4.46,1.28-.08,2.5.36,3.43,1.23.93.88,1.45,2.06,1.45,3.34Z"/>
    <path class="cls-1" d="m24.99,23.42l-.36-1.86c.52-.46.84-1.13.84-1.85,0-1.36-1.1-2.46-2.46-2.46s-2.46,1.1-2.46,2.46c0,.72.31,1.39.84,1.85l-.33,1.72-1.15,5.96c-.05.29.04.58.24.79l2.24,2.24c.17.17.4.26.62.26s.45-.09.62-.26l2.24-2.24c.21-.21.3-.5.24-.79l-1.12-5.83Zm-1.98-4.5c.44,0,.8.36.8.8s-.36.8-.8.8-.8-.36-.8-.8.36-.8.8-.8Zm0,11.48l-1.28-1.28,1.05-5.48.23-1.2.23,1.22,1.05,5.46-1.28,1.28Z"/>
    <path class="cls-1" d="m46,30.9l-1.89-11.71c-.02-.1-.05-.2-.1-.29h0c-.07-.13-.17-.23-.29-.31l-2.08-1.32c1.56-1.18,2.51-3.04,2.51-5.05,0-1.74-.73-3.43-2-4.62-1.29-1.21-2.97-1.82-4.74-1.71-3.25.2-5.86,2.91-5.94,6.17-.05,2.08.9,4,2.51,5.21l-1.04.66,1.63,1.05,1.57-1c.27-.17.43-.49.4-.81-.03-.32-.23-.61-.53-.74-1.73-.74-2.82-2.44-2.78-4.33.06-2.35,1.94-4.31,4.29-4.46,1.28-.08,2.5.36,3.43,1.23.93.88,1.45,2.06,1.45,3.34,0,1.84-1.09,3.49-2.78,4.21-.3.13-.5.41-.53.74-.03.33.13.64.4.81l2.96,1.89,1.57,9.74.26,1.59c.07.43.44.74.87.74.05,0,.09,0,.14,0,.48-.08.81-.53.73-1.01Z"/>
  </g>
  <text class="cls-2" transform="translate(56.68 31.49) scale(.88 1)"><tspan x="0" y="0">SALESCENTRAL</tspan></text>
</svg>